<svg version="1.1" width="49" height="48" viewBox="0 0 49 48" fill="none" xmlns="http://www.w3.org/2000/svg">
<path d="M 3.87 3.37 C 0.5 6.75 0.5 12.17 0.5 23.04 v 1.92 c 0 10.86 0 16.3 3.37 19.67 C 7.25 48 12.67 48 23.54 48 h 1.92 c 10.86 0 16.3 0 19.67 -3.37 c 3.37 -3.38 3.37 -8.8 3.37 -19.67 v -1.92 c 0 -10.86 0 -16.3 -3.37 -19.67 C 41.75 0 36.33 0 25.46 0 h -1.92 C 12.68 0 7.24 0 3.87 3.37 Z m 4.74 11.3 c 0.25 12.48 6.82 20 17.65 20 h 0.63 v -7.15 c 3.95 0.4 6.89 3.35 8.09 7.15 h 5.69 a 15.8 15.8 0 0 0 -8.03 -10.03 c 2.48 -1.49 6 -5.09 6.83 -9.97 h -5.18 c -1.08 3.97 -4.31 7.57 -7.4 7.91 v -7.91 h -5.26 v 13.85 c -3.2 -0.8 -7.37 -4.68 -7.54 -13.85 Z" fill="rgb(0, 119, 255)" fill-rule="evenodd"/>
</svg>
