<svg version="1.1" width="24" height="24" viewBox="0 0 24 24" fill="none" xmlns="http://www.w3.org/2000/svg">
<path d="M19.5 19H21c.28 0 .5.22.5.5V21a.5.5 0 0 1-.5.5h-1.5a.5.5 0 0 1-.5-.5v-1.5c0-.28.22-.5.5-.5ZM14 19h1.5c.28 0 .5.22.5.5V21a.5.5 0 0 1-.5.5H14a.5.5 0 0 1-.5-.5v-1.5c0-.28.22-.5.5-.5Zm2.75-2.75h1.5c.28 0 .5.22.5.5v1.5a.5.5 0 0 1-.5.5h-1.5a.5.5 0 0 1-.5-.5v-1.5c0-.28.22-.5.5-.5Zm2.75-2.75H21c.28 0 .5.22.5.5v1.5a.5.5 0 0 1-.5.5h-1.5a.5.5 0 0 1-.5-.5V14c0-.28.22-.5.5-.5Zm-5.5 0h1.5c.28 0 .5.22.5.5v1.5a.5.5 0 0 1-.5.5H14a.5.5 0 0 1-.5-.5V14c0-.28.22-.5.5-.5ZM4.5 13h4a2.5 2.5 0 0 1 2.5 2.5v4A2.5 2.5 0 0 1 8.5 22h-4A2.5 2.5 0 0 1 2 19.5v-4A2.5 2.5 0 0 1 4.5 13Zm.25 1.75a1 1 0 0 0-1 1v3.5a1 1 0 0 0 1 1h3.5a1 1 0 0 0 1-1v-3.5a1 1 0 0 0-1-1h-3.5Zm1 1.5h1.5c.28 0 .5.22.5.5v1.5a.5.5 0 0 1-.5.5h-1.5a.5.5 0 0 1-.5-.5v-1.5c0-.28.22-.5.5-.5ZM15.5 2h4A2.5 2.5 0 0 1 22 4.5v4a2.5 2.5 0 0 1-2.5 2.5h-4A2.5 2.5 0 0 1 13 8.5v-4A2.5 2.5 0 0 1 15.5 2Zm.25 1.75a1 1 0 0 0-1 1v3.5a1 1 0 0 0 1 1h3.5a1 1 0 0 0 1-1v-3.5a1 1 0 0 0-1-1h-3.5Zm1 1.5h1.5c.28 0 .5.22.5.5v1.5a.5.5 0 0 1-.5.5h-1.5a.5.5 0 0 1-.5-.5v-1.5c0-.28.22-.5.5-.5ZM4.5 2h4A2.5 2.5 0 0 1 11 4.5v4A2.5 2.5 0 0 1 8.5 11h-4A2.5 2.5 0 0 1 2 8.5v-4A2.5 2.5 0 0 1 4.5 2Zm.25 1.75a1 1 0 0 0-1 1v3.5a1 1 0 0 0 1 1h3.5a1 1 0 0 0 1-1v-3.5a1 1 0 0 0-1-1h-3.5Zm1 1.5h1.5c.28 0 .5.22.5.5v1.5a.5.5 0 0 1-.5.5h-1.5a.5.5 0 0 1-.5-.5v-1.5c0-.28.22-.5.5-.5Z" id="qr_24__Mask" fill="currentColor"></path>
</svg>